<mxfile host="app.diagrams.net" modified="2023-01-04T18:18:38.129Z" agent="5.0 (Macintosh; Intel Mac OS X 10_15_7) AppleWebKit/605.1.15 (KHTML, like Gecko) Version/16.1 Safari/605.1.15" etag="2Jfub5oIPOBSbXwYRnJp" version="20.8.1" type="github">
  <diagram id="C5RBs43oDa-KdzZeNtuy" name="Page-1">
    <mxGraphModel dx="1184" dy="701" grid="1" gridSize="10" guides="1" tooltips="1" connect="1" arrows="1" fold="1" page="1" pageScale="1" pageWidth="827" pageHeight="1169" math="0" shadow="0">
      <root>
        <mxCell id="WIyWlLk6GJQsqaUBKTNV-0" />
        <mxCell id="WIyWlLk6GJQsqaUBKTNV-1" parent="WIyWlLk6GJQsqaUBKTNV-0" />
        <mxCell id="LnBFbePXS2DzoWe7dejd-26" style="rounded=0;orthogonalLoop=1;jettySize=auto;html=1;exitX=0.5;exitY=1;exitDx=0;exitDy=0;entryX=0.25;entryY=0;entryDx=0;entryDy=0;dashed=1;" edge="1" parent="WIyWlLk6GJQsqaUBKTNV-1" source="LnBFbePXS2DzoWe7dejd-0" target="LnBFbePXS2DzoWe7dejd-17">
          <mxGeometry relative="1" as="geometry" />
        </mxCell>
        <mxCell id="LnBFbePXS2DzoWe7dejd-0" value="User" style="swimlane;whiteSpace=wrap;html=1;dashed=1;" vertex="1" parent="WIyWlLk6GJQsqaUBKTNV-1">
          <mxGeometry x="60" y="30" width="230" height="170" as="geometry" />
        </mxCell>
        <mxCell id="LnBFbePXS2DzoWe7dejd-5" value="Publish(publication)" style="text;html=1;align=center;verticalAlign=middle;resizable=0;points=[];autosize=1;strokeColor=none;fillColor=none;" vertex="1" parent="LnBFbePXS2DzoWe7dejd-0">
          <mxGeometry y="30" width="130" height="30" as="geometry" />
        </mxCell>
        <mxCell id="LnBFbePXS2DzoWe7dejd-6" value="Like(publication)" style="text;html=1;align=center;verticalAlign=middle;resizable=0;points=[];autosize=1;strokeColor=none;fillColor=none;dashed=1;" vertex="1" parent="LnBFbePXS2DzoWe7dejd-0">
          <mxGeometry y="50" width="110" height="30" as="geometry" />
        </mxCell>
        <mxCell id="LnBFbePXS2DzoWe7dejd-7" value="Dislike(publication)" style="text;html=1;align=center;verticalAlign=middle;resizable=0;points=[];autosize=1;strokeColor=none;fillColor=none;dashed=1;" vertex="1" parent="LnBFbePXS2DzoWe7dejd-0">
          <mxGeometry y="70" width="120" height="30" as="geometry" />
        </mxCell>
        <mxCell id="LnBFbePXS2DzoWe7dejd-8" value="Follow(user)" style="text;html=1;align=center;verticalAlign=middle;resizable=0;points=[];autosize=1;strokeColor=none;fillColor=none;dashed=1;" vertex="1" parent="LnBFbePXS2DzoWe7dejd-0">
          <mxGeometry y="90" width="90" height="30" as="geometry" />
        </mxCell>
        <mxCell id="LnBFbePXS2DzoWe7dejd-10" value="GetFollowed() string[]" style="text;html=1;align=center;verticalAlign=middle;resizable=0;points=[];autosize=1;strokeColor=none;fillColor=none;dashed=1;" vertex="1" parent="LnBFbePXS2DzoWe7dejd-0">
          <mxGeometry y="130" width="140" height="30" as="geometry" />
        </mxCell>
        <mxCell id="LnBFbePXS2DzoWe7dejd-9" value="GetReputation() int" style="text;html=1;align=center;verticalAlign=middle;resizable=0;points=[];autosize=1;strokeColor=none;fillColor=none;" vertex="1" parent="LnBFbePXS2DzoWe7dejd-0">
          <mxGeometry x="5" y="110" width="120" height="30" as="geometry" />
        </mxCell>
        <mxCell id="LnBFbePXS2DzoWe7dejd-2" value="PeersterNode" style="swimlane;whiteSpace=wrap;html=1;" vertex="1" parent="WIyWlLk6GJQsqaUBKTNV-1">
          <mxGeometry x="945" y="400" width="190" height="80" as="geometry" />
        </mxCell>
        <mxCell id="LnBFbePXS2DzoWe7dejd-3" value="Is exactly what is called &quot;node&quot;&lt;br&gt;&amp;nbsp;at the end of hw3" style="text;html=1;align=center;verticalAlign=middle;resizable=0;points=[];autosize=1;strokeColor=none;fillColor=none;" vertex="1" parent="LnBFbePXS2DzoWe7dejd-2">
          <mxGeometry y="35" width="190" height="40" as="geometry" />
        </mxCell>
        <mxCell id="LnBFbePXS2DzoWe7dejd-11" value="Publication" style="swimlane;whiteSpace=wrap;html=1;" vertex="1" parent="WIyWlLk6GJQsqaUBKTNV-1">
          <mxGeometry x="945" y="270" width="190" height="100" as="geometry" />
        </mxCell>
        <mxCell id="LnBFbePXS2DzoWe7dejd-12" value="ID string&amp;nbsp;" style="text;html=1;align=center;verticalAlign=middle;resizable=0;points=[];autosize=1;strokeColor=none;fillColor=none;" vertex="1" parent="LnBFbePXS2DzoWe7dejd-11">
          <mxGeometry x="10" y="30" width="70" height="30" as="geometry" />
        </mxCell>
        <mxCell id="LnBFbePXS2DzoWe7dejd-13" value="Author string" style="text;html=1;align=center;verticalAlign=middle;resizable=0;points=[];autosize=1;strokeColor=none;fillColor=none;" vertex="1" parent="LnBFbePXS2DzoWe7dejd-11">
          <mxGeometry x="9" y="50" width="90" height="30" as="geometry" />
        </mxCell>
        <mxCell id="LnBFbePXS2DzoWe7dejd-14" value="Content string" style="text;html=1;align=center;verticalAlign=middle;resizable=0;points=[];autosize=1;strokeColor=none;fillColor=none;" vertex="1" parent="LnBFbePXS2DzoWe7dejd-11">
          <mxGeometry x="4" y="70" width="100" height="30" as="geometry" />
        </mxCell>
        <mxCell id="LnBFbePXS2DzoWe7dejd-17" value="UserNode" style="swimlane;whiteSpace=wrap;html=1;" vertex="1" parent="WIyWlLk6GJQsqaUBKTNV-1">
          <mxGeometry x="322" y="300" width="226" height="200" as="geometry" />
        </mxCell>
        <mxCell id="LnBFbePXS2DzoWe7dejd-20" value="feed Publication[]" style="text;html=1;align=center;verticalAlign=middle;resizable=0;points=[];autosize=1;strokeColor=none;fillColor=none;" vertex="1" parent="LnBFbePXS2DzoWe7dejd-17">
          <mxGeometry y="50" width="120" height="30" as="geometry" />
        </mxCell>
        <mxCell id="LnBFbePXS2DzoWe7dejd-21" value="followers string[] // same as followed" style="text;html=1;align=center;verticalAlign=middle;resizable=0;points=[];autosize=1;strokeColor=none;fillColor=none;" vertex="1" parent="LnBFbePXS2DzoWe7dejd-17">
          <mxGeometry y="75" width="220" height="30" as="geometry" />
        </mxCell>
        <mxCell id="LnBFbePXS2DzoWe7dejd-22" value="reputations map[string]int" style="text;html=1;align=center;verticalAlign=middle;resizable=0;points=[];autosize=1;strokeColor=none;fillColor=none;" vertex="1" parent="LnBFbePXS2DzoWe7dejd-17">
          <mxGeometry y="95" width="160" height="30" as="geometry" />
        </mxCell>
        <mxCell id="LnBFbePXS2DzoWe7dejd-42" value="identity Identity" style="text;html=1;align=center;verticalAlign=middle;resizable=0;points=[];autosize=1;strokeColor=none;fillColor=none;" vertex="1" parent="LnBFbePXS2DzoWe7dejd-17">
          <mxGeometry y="120" width="100" height="30" as="geometry" />
        </mxCell>
        <mxCell id="LnBFbePXS2DzoWe7dejd-43" value="*PeersterNode // embedding" style="text;html=1;align=center;verticalAlign=middle;resizable=0;points=[];autosize=1;strokeColor=none;fillColor=none;" vertex="1" parent="LnBFbePXS2DzoWe7dejd-17">
          <mxGeometry y="30" width="170" height="30" as="geometry" />
        </mxCell>
        <mxCell id="LnBFbePXS2DzoWe7dejd-27" value="implements" style="text;html=1;align=center;verticalAlign=middle;resizable=0;points=[];autosize=1;strokeColor=none;fillColor=none;" vertex="1" parent="WIyWlLk6GJQsqaUBKTNV-1">
          <mxGeometry x="230" y="210" width="80" height="30" as="geometry" />
        </mxCell>
        <mxCell id="LnBFbePXS2DzoWe7dejd-31" style="edgeStyle=none;rounded=0;orthogonalLoop=1;jettySize=auto;html=1;exitX=0.5;exitY=1;exitDx=0;exitDy=0;entryX=0.5;entryY=0;entryDx=0;entryDy=0;dashed=1;" edge="1" parent="WIyWlLk6GJQsqaUBKTNV-1" source="LnBFbePXS2DzoWe7dejd-29" target="LnBFbePXS2DzoWe7dejd-17">
          <mxGeometry relative="1" as="geometry" />
        </mxCell>
        <mxCell id="LnBFbePXS2DzoWe7dejd-29" value="SybilVerifier" style="swimlane;whiteSpace=wrap;html=1;dashed=1;" vertex="1" parent="WIyWlLk6GJQsqaUBKTNV-1">
          <mxGeometry x="340" y="30" width="190" height="70" as="geometry" />
        </mxCell>
        <mxCell id="LnBFbePXS2DzoWe7dejd-30" value="GetSybilNodes() string[]" style="text;html=1;align=center;verticalAlign=middle;resizable=0;points=[];autosize=1;strokeColor=none;fillColor=none;" vertex="1" parent="LnBFbePXS2DzoWe7dejd-29">
          <mxGeometry y="35" width="150" height="30" as="geometry" />
        </mxCell>
        <mxCell id="LnBFbePXS2DzoWe7dejd-32" value="implements" style="text;html=1;align=center;verticalAlign=middle;resizable=0;points=[];autosize=1;strokeColor=none;fillColor=none;" vertex="1" parent="WIyWlLk6GJQsqaUBKTNV-1">
          <mxGeometry x="440" y="160" width="80" height="30" as="geometry" />
        </mxCell>
        <mxCell id="LnBFbePXS2DzoWe7dejd-36" style="edgeStyle=none;rounded=0;orthogonalLoop=1;jettySize=auto;html=1;exitX=0.5;exitY=1;exitDx=0;exitDy=0;entryX=0.75;entryY=0;entryDx=0;entryDy=0;dashed=1;" edge="1" parent="WIyWlLk6GJQsqaUBKTNV-1" source="LnBFbePXS2DzoWe7dejd-33" target="LnBFbePXS2DzoWe7dejd-17">
          <mxGeometry relative="1" as="geometry" />
        </mxCell>
        <mxCell id="LnBFbePXS2DzoWe7dejd-33" value="IdentityVerifier" style="swimlane;whiteSpace=wrap;html=1;dashed=1;" vertex="1" parent="WIyWlLk6GJQsqaUBKTNV-1">
          <mxGeometry x="590" y="60" width="200" height="80" as="geometry" />
        </mxCell>
        <mxCell id="LnBFbePXS2DzoWe7dejd-34" value="GetVerifiedUsers() string[]" style="text;html=1;align=center;verticalAlign=middle;resizable=0;points=[];autosize=1;strokeColor=none;fillColor=none;" vertex="1" parent="LnBFbePXS2DzoWe7dejd-33">
          <mxGeometry y="30" width="160" height="30" as="geometry" />
        </mxCell>
        <mxCell id="LnBFbePXS2DzoWe7dejd-37" value="implements" style="text;html=1;align=center;verticalAlign=middle;resizable=0;points=[];autosize=1;strokeColor=none;fillColor=none;" vertex="1" parent="WIyWlLk6GJQsqaUBKTNV-1">
          <mxGeometry x="610" y="190" width="80" height="30" as="geometry" />
        </mxCell>
        <mxCell id="LnBFbePXS2DzoWe7dejd-38" value="Identity" style="swimlane;whiteSpace=wrap;html=1;" vertex="1" parent="WIyWlLk6GJQsqaUBKTNV-1">
          <mxGeometry x="940" y="130" width="200" height="110" as="geometry" />
        </mxCell>
        <mxCell id="LnBFbePXS2DzoWe7dejd-39" value="username string" style="text;html=1;align=center;verticalAlign=middle;resizable=0;points=[];autosize=1;strokeColor=none;fillColor=none;dashed=1;" vertex="1" parent="LnBFbePXS2DzoWe7dejd-38">
          <mxGeometry y="30" width="110" height="30" as="geometry" />
        </mxCell>
        <mxCell id="LnBFbePXS2DzoWe7dejd-40" value="email string" style="text;html=1;align=center;verticalAlign=middle;resizable=0;points=[];autosize=1;strokeColor=none;fillColor=none;dashed=1;" vertex="1" parent="LnBFbePXS2DzoWe7dejd-38">
          <mxGeometry y="50" width="80" height="30" as="geometry" />
        </mxCell>
        <mxCell id="LnBFbePXS2DzoWe7dejd-41" value="phoneNumber string" style="text;html=1;align=center;verticalAlign=middle;resizable=0;points=[];autosize=1;strokeColor=none;fillColor=none;" vertex="1" parent="LnBFbePXS2DzoWe7dejd-38">
          <mxGeometry y="70" width="130" height="30" as="geometry" />
        </mxCell>
        <mxCell id="LnBFbePXS2DzoWe7dejd-44" value="Configuration" style="swimlane;whiteSpace=wrap;html=1;" vertex="1" parent="WIyWlLk6GJQsqaUBKTNV-1">
          <mxGeometry x="945" y="500" width="200" height="200" as="geometry" />
        </mxCell>
        <mxCell id="LnBFbePXS2DzoWe7dejd-45" value="PoPThreshold uint" style="text;html=1;align=center;verticalAlign=middle;resizable=0;points=[];autosize=1;strokeColor=none;fillColor=none;" vertex="1" parent="LnBFbePXS2DzoWe7dejd-44">
          <mxGeometry y="50" width="120" height="30" as="geometry" />
        </mxCell>
        <mxCell id="LnBFbePXS2DzoWe7dejd-46" value="SybilLimitParams" style="text;html=1;align=center;verticalAlign=middle;resizable=0;points=[];autosize=1;strokeColor=none;fillColor=none;" vertex="1" parent="LnBFbePXS2DzoWe7dejd-44">
          <mxGeometry y="80" width="120" height="30" as="geometry" />
        </mxCell>
        <mxCell id="LnBFbePXS2DzoWe7dejd-47" value="Everything from hw3..." style="text;html=1;align=center;verticalAlign=middle;resizable=0;points=[];autosize=1;strokeColor=none;fillColor=none;" vertex="1" parent="LnBFbePXS2DzoWe7dejd-44">
          <mxGeometry y="20" width="140" height="30" as="geometry" />
        </mxCell>
        <mxCell id="LnBFbePXS2DzoWe7dejd-48" value="PublicationMessage" style="swimlane;whiteSpace=wrap;html=1;" vertex="1" parent="WIyWlLk6GJQsqaUBKTNV-1">
          <mxGeometry x="130" y="620" width="200" height="90" as="geometry" />
        </mxCell>
        <mxCell id="LnBFbePXS2DzoWe7dejd-49" value="UserPrepareMessage" style="swimlane;whiteSpace=wrap;html=1;" vertex="1" parent="WIyWlLk6GJQsqaUBKTNV-1">
          <mxGeometry x="390" y="610" width="200" height="90" as="geometry" />
        </mxCell>
        <mxCell id="LnBFbePXS2DzoWe7dejd-50" value="UserProposeMessage" style="swimlane;whiteSpace=wrap;html=1;" vertex="1" parent="WIyWlLk6GJQsqaUBKTNV-1">
          <mxGeometry x="390" y="720" width="200" height="90" as="geometry" />
        </mxCell>
        <mxCell id="LnBFbePXS2DzoWe7dejd-51" value="UserPromiseMessage" style="swimlane;whiteSpace=wrap;html=1;" vertex="1" parent="WIyWlLk6GJQsqaUBKTNV-1">
          <mxGeometry x="390" y="840" width="200" height="90" as="geometry" />
        </mxCell>
        <mxCell id="LnBFbePXS2DzoWe7dejd-52" value="UserAcceptMessage" style="swimlane;whiteSpace=wrap;html=1;" vertex="1" parent="WIyWlLk6GJQsqaUBKTNV-1">
          <mxGeometry x="390" y="970" width="200" height="100" as="geometry" />
        </mxCell>
        <mxCell id="LnBFbePXS2DzoWe7dejd-53" value="IdentityPrepareMessage" style="swimlane;whiteSpace=wrap;html=1;" vertex="1" parent="WIyWlLk6GJQsqaUBKTNV-1">
          <mxGeometry x="670" y="610" width="200" height="90" as="geometry" />
        </mxCell>
        <mxCell id="LnBFbePXS2DzoWe7dejd-54" value="IdentityProposeMessage" style="swimlane;whiteSpace=wrap;html=1;" vertex="1" parent="WIyWlLk6GJQsqaUBKTNV-1">
          <mxGeometry x="670" y="730" width="200" height="90" as="geometry" />
        </mxCell>
        <mxCell id="LnBFbePXS2DzoWe7dejd-55" value="IdentityPromiseMessage" style="swimlane;whiteSpace=wrap;html=1;" vertex="1" parent="WIyWlLk6GJQsqaUBKTNV-1">
          <mxGeometry x="670" y="860" width="200" height="90" as="geometry" />
        </mxCell>
        <mxCell id="LnBFbePXS2DzoWe7dejd-56" value="IdentityAcceptMessage" style="swimlane;whiteSpace=wrap;html=1;" vertex="1" parent="WIyWlLk6GJQsqaUBKTNV-1">
          <mxGeometry x="670" y="980" width="200" height="90" as="geometry" />
        </mxCell>
        <mxCell id="LnBFbePXS2DzoWe7dejd-57" value="UserPaxosValue" style="swimlane;whiteSpace=wrap;html=1;" vertex="1" parent="WIyWlLk6GJQsqaUBKTNV-1">
          <mxGeometry x="390" y="1110" width="200" height="90" as="geometry" />
        </mxCell>
        <mxCell id="LnBFbePXS2DzoWe7dejd-58" value="IdentityPaxosValue" style="swimlane;whiteSpace=wrap;html=1;" vertex="1" parent="WIyWlLk6GJQsqaUBKTNV-1">
          <mxGeometry x="670" y="1110" width="200" height="90" as="geometry" />
        </mxCell>
        <mxCell id="LnBFbePXS2DzoWe7dejd-59" value="FollowRequest" style="swimlane;whiteSpace=wrap;html=1;" vertex="1" parent="WIyWlLk6GJQsqaUBKTNV-1">
          <mxGeometry x="130" y="740" width="200" height="90" as="geometry" />
        </mxCell>
        <mxCell id="LnBFbePXS2DzoWe7dejd-60" value="FollowResponse" style="swimlane;whiteSpace=wrap;html=1;" vertex="1" parent="WIyWlLk6GJQsqaUBKTNV-1">
          <mxGeometry x="130" y="860" width="200" height="90" as="geometry" />
        </mxCell>
      </root>
    </mxGraphModel>
  </diagram>
</mxfile>
